<svg width="47" height="47" viewBox="0 0 47 47" fill="currentColor" xmlns="http://www.w3.org/2000/svg">
  <path
    d="M24.0121 22.0509C22.6939 19.48 19.1143 14.6793 15.7886 12.3154C12.608 10.0369 11.3866 10.4268 10.5884 10.7924C9.66931 11.2066 9.5 12.6444 9.5 13.473C9.5 14.3015 9.95955 20.3573 10.2498 21.3686C11.2294 24.7072 14.7364 25.8282 17.9654 25.4626C18.1347 25.4383 18.304 25.4139 18.4612 25.3895C18.2919 25.4139 18.1226 25.4383 17.9654 25.4626C13.2369 26.1693 9.02836 27.9117 14.543 34.0893C20.6018 40.4131 22.8511 32.7368 24 28.8378C25.1489 32.7247 26.4791 40.1329 33.3482 34.0893C38.5121 28.8378 34.7631 26.1693 30.0346 25.4626C29.8653 25.4383 29.696 25.4261 29.5267 25.3895C29.696 25.4139 29.8653 25.4383 30.0346 25.4626C33.2636 25.8282 36.7706 24.695 37.7502 21.3686C38.0525 20.3573 38.5 14.3137 38.5 13.473C38.5 12.6322 38.3307 11.2066 37.4116 10.7802C36.6134 10.4146 35.4041 10.0247 32.2114 12.2911C28.8857 14.6671 25.3061 19.4556 23.9879 22.0388L24.0121 22.0509Z" />
</svg>
