<svg width="47" height="47" viewBox="0 0 47 47" fill="none" xmlns="http://www.w3.org/2000/svg">
<path d="M34.8267 12.1959C34.8173 12.1775 34.8016 12.1631 34.7825 12.1553C32.5781 11.1401 30.2518 10.4163 27.8619 10.0018C27.8402 9.99772 27.8177 10.0006 27.7978 10.0101C27.7778 10.0196 27.7613 10.0352 27.7507 10.0546C27.4339 10.6316 27.1464 11.2244 26.8891 11.8305C24.3129 11.438 21.6924 11.438 19.1162 11.8305C18.8572 11.2228 18.5651 10.6299 18.241 10.0546C18.2299 10.0356 18.2133 10.0204 18.1935 10.011C18.1737 10.0016 18.1514 9.99835 18.1298 10.0018C15.7396 10.4154 13.4131 11.1393 11.209 12.1553C11.1901 12.1633 11.1742 12.177 11.1634 12.1945C6.75563 18.8012 5.54816 25.2455 6.1405 31.6099C6.14217 31.6255 6.14694 31.6406 6.15454 31.6543C6.16214 31.668 6.17241 31.6801 6.18474 31.6897C8.75137 33.5971 11.6222 35.053 14.6746 35.9953C14.6961 36.0018 14.7191 36.0015 14.7404 35.9945C14.7618 35.9875 14.7804 35.9741 14.7939 35.9561C15.4495 35.0608 16.0305 34.1127 16.5308 33.1215C16.5377 33.1079 16.5416 33.093 16.5423 33.0778C16.543 33.0625 16.5405 33.0473 16.5349 33.0331C16.5294 33.019 16.5209 33.0061 16.51 32.9955C16.4991 32.9848 16.4861 32.9766 16.4719 32.9713C15.5558 32.6195 14.6689 32.1955 13.8196 31.7031C13.8042 31.694 13.7912 31.6812 13.7819 31.6659C13.7725 31.6506 13.7671 31.6332 13.766 31.6152C13.765 31.5973 13.7683 31.5794 13.7758 31.5631C13.7833 31.5467 13.7947 31.5325 13.8089 31.5217C13.9871 31.3876 14.1655 31.2482 14.3356 31.1075C14.3507 31.095 14.369 31.0869 14.3885 31.0843C14.4079 31.0817 14.4276 31.0846 14.4455 31.0926C20.0098 33.6414 26.0339 33.6414 31.5323 31.0926C31.5502 31.084 31.5702 31.0808 31.5899 31.0832C31.6096 31.0856 31.6282 31.0935 31.6435 31.1061C31.8138 31.2469 31.992 31.3876 32.1716 31.5217C32.1859 31.5324 32.1974 31.5465 32.205 31.5628C32.2126 31.5791 32.2161 31.5969 32.2151 31.6149C32.2142 31.6328 32.2089 31.6502 32.1997 31.6656C32.1904 31.681 32.1776 31.6939 32.1622 31.7031C31.3148 32.1996 30.4272 32.6234 29.5087 32.97C29.4944 32.9754 29.4815 32.9839 29.4707 32.9947C29.4599 33.0055 29.4515 33.0185 29.446 33.0328C29.4406 33.0471 29.4382 33.0624 29.439 33.0777C29.4398 33.093 29.4439 33.1079 29.4509 33.1215C29.9596 34.1072 30.5396 35.0541 31.1864 35.9545C31.1995 35.973 31.2181 35.9869 31.2395 35.9942C31.2609 36.0015 31.2841 36.0018 31.3057 35.9952C34.3636 35.056 37.2395 33.6 39.8093 31.6897C39.8218 31.6806 39.8322 31.6688 39.8399 31.6553C39.8475 31.6418 39.8521 31.6267 39.8535 31.6113C40.5627 24.2533 38.6663 17.8619 34.8267 12.1959ZM17.3618 27.7346C15.6865 27.7346 14.3061 26.1916 14.3061 24.2967C14.3061 22.4017 15.6597 20.8585 17.3618 20.8585C19.0771 20.8585 20.4441 22.4151 20.4173 24.2965C20.4173 26.1916 19.0637 27.7346 17.3618 27.7346ZM28.6593 27.7346C26.9841 27.7346 25.6037 26.1916 25.6037 24.2967C25.6037 22.4017 26.9573 20.8585 28.6593 20.8585C30.3747 20.8585 31.7417 22.4151 31.7149 24.2965C31.7149 26.1916 30.3747 27.7346 28.6593 27.7346Z" fill="currentColor" />
</svg>
