<svg width="47" height="47" viewBox="0 0 47 47" fill="none" xmlns="http://www.w3.org/2000/svg">
<path d="M24.5895 21.9422H21.0782V18.7608H24.5895V21.9422ZM24.5895 11H21.0782V14.2511H24.5895V11ZM28.7436 18.7554H25.2323V21.9368H28.7436V18.7554ZM20.4407 14.8938H16.9294V18.1127H20.4407V14.8938ZM24.5895 14.8938H21.0782V18.1127H24.5895V14.8938ZM39.2935 20.2497C38.5285 19.7302 36.7649 19.5427 35.4103 19.7998C35.235 18.5144 34.5232 17.395 33.227 16.3881L32.4833 15.89L31.9893 16.6398C31.0119 18.1288 30.7463 20.5818 31.7927 22.1993C31.3306 22.451 30.4222 22.7938 29.2217 22.7724H6.12981C5.66765 25.4932 6.43791 29.0281 8.46715 31.4544C10.438 33.8056 13.3915 35 17.2534 35C25.6147 35 31.8034 31.1169 34.6985 24.0632C35.8353 24.0846 38.2895 24.0685 39.5485 21.6423C39.6282 21.5084 39.8991 20.9353 40 20.7264L39.2935 20.2497ZM12.1431 18.7554H8.63714V21.9368H12.1485V18.7554H12.1431ZM16.2919 18.7554H12.7806V21.9368H16.2919V18.7554ZM20.4407 18.7554H16.9294V21.9368H20.4407V18.7554ZM16.2919 14.8938H12.7806V18.1127H16.2919V14.8938Z" fill="currentColor" />
</svg>
