<svg width="47" height="47" viewBox="0 0 47 47" fill="none" xmlns="http://www.w3.org/2000/svg">
<path d="M35.5714 7H10.4286C8.53571 7 7 8.53571 7 10.4286V35.5714C7 37.4643 8.53571 39 10.4286 39H35.5714C37.4643 39 39 37.4643 39 35.5714V10.4286C39 8.53571 37.4643 7 35.5714 7ZM17.3214 27.5C14.8143 27.5 12.7857 25.4714 12.7857 22.9643C12.7857 20.4571 14.8143 18.4286 17.3214 18.4286C19.8286 18.4286 21.8571 20.4571 21.8571 22.9643C21.8571 25.4714 19.8286 27.5 17.3214 27.5ZM28.6786 27.5C26.1714 27.5 24.1429 25.4714 24.1429 22.9643C24.1429 20.4571 26.1714 18.4286 28.6786 18.4286C31.1857 18.4286 33.2143 20.4571 33.2143 22.9643C33.2143 25.4714 31.1857 27.5 28.6786 27.5Z" fill="black"/>
</svg>
