<svg width="47" height="47" viewBox="0 0 47 47" fill="none" xmlns="http://www.w3.org/2000/svg">
<path d="M34.7857 8H11.2143C9.43973 8 8 9.43973 8 11.2143V34.7857C8 36.5603 9.43973 38 11.2143 38H34.7857C36.5603 38 38 36.5603 38 34.7857V11.2143C38 9.43973 36.5603 8 34.7857 8ZM17.6763 27.2187C15.3259 27.2187 13.4241 25.317 13.4241 22.9665C13.4241 20.6161 15.3259 18.7143 17.6763 18.7143C20.0268 18.7143 21.9286 20.6161 21.9286 22.9665C21.9286 25.317 20.0268 27.2187 17.6763 27.2187ZM28.3237 27.2187C25.9732 27.2187 24.0714 25.317 24.0714 22.9665C24.0714 20.6161 25.9732 18.7143 28.3237 18.7143C30.6741 18.7143 32.5759 20.6161 32.5759 22.9665C32.5759 25.317 30.6741 27.2187 28.3237 27.2187Z" fill="black"/>
</svg>
