<svg width="47" height="47" viewBox="0 0 47 47" fill="currentColor" xmlns="http://www.w3.org/2000/svg">
  <path
    d="M23.3774 9C31.8677 9 38.7549 15.8872 38.7549 24.3774C38.7549 31.2088 34.3001 36.987 28.1491 39V38.9814C28.1491 38.9814 27.1146 38.4967 27.1333 37.63C27.1612 36.6701 27.1333 34.4427 27.1333 33.6226C27.1333 32.2153 26.2479 31.2181 26.2479 31.2181C26.2479 31.2181 33.219 31.2926 33.219 23.8555C33.219 20.9851 31.7185 19.4939 31.7185 19.4939C31.7185 19.4939 32.5107 16.4278 31.4483 15.1323C30.2554 15.0019 28.1305 16.2693 27.2171 16.8565C27.2171 16.8565 25.7726 16.2693 23.3774 16.2693C20.9823 16.2693 19.5377 16.8565 19.5377 16.8565C18.6244 16.2693 16.4995 15.0019 15.3066 15.1323C14.2442 16.4371 15.0363 19.4939 15.0363 19.4939C15.0363 19.4939 13.5359 20.9851 13.5359 23.8555C13.5359 31.2926 20.507 31.2181 20.507 31.2181C20.507 31.2181 19.808 32.0103 19.6496 33.1752C19.165 33.343 18.4473 33.548 17.8695 33.548C16.3597 33.548 15.2041 32.0755 14.7847 31.3952C14.3653 30.7241 13.5172 30.165 12.7251 30.165C12.2032 30.165 11.9422 30.4259 11.9422 30.7241C11.9422 31.0224 12.6785 31.2367 13.1631 31.7866C14.1883 32.9609 14.1696 35.589 17.8043 35.589C18.1957 35.589 19.0065 35.4958 19.6123 35.4119C19.6123 36.2414 19.6123 37.1174 19.6123 37.63C19.6309 38.4967 18.5965 38.9814 18.5965 38.9814C18.5965 38.9814 18.5965 38.9814 18.5965 39C12.4548 36.987 8 31.2088 8 24.3774C8 15.8872 14.8872 9 23.3774 9Z" />
</svg>
