<svg width="47" height="47" viewBox="0 0 47 47" fill="none" xmlns="http://www.w3.org/2000/svg">
<path d="M36.5434 20.6859L36.5051 20.5873L32.6922 10.6324C32.6156 10.4369 32.4789 10.2715 32.2983 10.1592C32.167 10.0743 32.0193 10.0215 31.8607 10.0053C31.7021 9.98917 31.5489 10.0099 31.4012 10.0661C31.2535 10.122 31.1222 10.2118 31.0128 10.3279C30.9089 10.444 30.8323 10.5836 30.7885 10.7353L28.2174 18.6213H17.7964L15.2198 10.7353C15.1761 10.5836 15.0995 10.4445 14.9955 10.3284C14.8861 10.2123 14.7548 10.1231 14.6071 10.0672C14.4627 10.0111 14.3052 9.99026 14.1487 10.0063C13.9923 10.0222 13.8418 10.0743 13.7089 10.1592C13.5317 10.2715 13.3944 10.4369 13.3172 10.6324L9.50694 20.5873L9.46734 20.6859C8.91882 22.1207 8.85121 23.6979 9.27478 25.1765C9.69857 26.6497 10.5902 27.953 11.8156 28.8785L11.8304 28.8895L11.8627 28.9114L17.6596 33.2651L20.537 35.4392L22.2875 36.7645C22.49 36.8686 22.7416 37 22.9987 37C23.2558 37 23.5074 36.8686 23.7098 36.7645L25.4604 35.4392L28.3378 33.2651L34.1747 28.8895L34.1911 28.8731C35.4165 27.9476 36.3081 26.6497 36.6856 25.1765C37.156 23.6979 37.0904 22.1207 36.5434 20.6859Z" fill="black"/>
</svg>
