<svg width="47" height="47" viewBox="0 0 47 47" fill="none" xmlns="http://www.w3.org/2000/svg">
<path d="M39.4455 20.0605L39.399 19.9401L34.7691 7.7729C34.6761 7.53394 34.51 7.3318 34.2908 7.19459C34.1314 7.09084 33.9521 7.02625 33.7594 7.00651C33.5668 6.98676 33.3808 7.01206 33.2015 7.0808C33.0221 7.14908 32.8627 7.25885 32.7298 7.40075C32.6036 7.54265 32.5106 7.71333 32.4575 7.89873L29.3355 17.5371H16.6813L13.5526 7.89873C13.4995 7.71333 13.4065 7.54331 13.2803 7.40142C13.1474 7.25952 12.988 7.15042 12.8087 7.08214C12.6333 7.01354 12.442 6.9881 12.252 7.00765C12.062 7.02712 11.8794 7.09084 11.718 7.19459C11.5027 7.3318 11.336 7.53394 11.2423 7.7729L6.61557 19.9401L6.56748 20.0605C5.90143 21.8142 5.81932 23.7419 6.33366 25.5491C6.84826 27.3496 7.93101 28.9426 9.41895 30.0738L9.43688 30.0872L9.47608 30.1139L16.5152 35.4351L20.0092 38.0924L22.1349 39.7122C22.3807 39.8394 22.6862 40 22.9984 40C23.3106 40 23.6162 39.8394 23.862 39.7122L25.9876 38.0924L29.4816 35.4351L36.5693 30.0872L36.5892 30.0671C38.0771 28.9359 39.1599 27.3496 39.6182 25.5491C40.1895 23.7419 40.1098 21.8142 39.4455 20.0605Z" fill="black"/>
</svg>
