<svg width="47" height="47" viewBox="0 0 47 47" fill="none" xmlns="http://www.w3.org/2000/svg">
  <path
    d="M18.0207 10.1953C13.727 10.1953 10.1953 13.7149 10.1953 18.0207V28.9786C10.1953 33.2723 13.7149 36.804 18.0207 36.804H28.9786C33.2723 36.804 36.804 33.2844 36.804 28.9786V18.0207C36.804 13.727 33.2844 10.1953 28.9786 10.1953H18.0207ZM18.0207 12.6143H28.9786C31.9661 12.6143 34.385 15.0333 34.385 18.0207V28.9786C34.385 31.9661 31.9661 34.385 28.9786 34.385H18.0207C15.0333 34.385 12.6143 31.9661 12.6143 28.9786V18.0207C12.6143 15.0333 15.0333 12.6143 18.0207 12.6143ZM30.6477 15.2631C30.043 15.2631 29.5471 15.7469 29.5471 16.3637C29.5471 16.9805 30.0309 17.4643 30.6477 17.4643C31.2646 17.4643 31.7484 16.9805 31.7484 16.3637C31.7484 15.7469 31.2646 15.2631 30.6477 15.2631ZM23.4997 16.2427C19.5084 16.2427 16.2427 19.5084 16.2427 23.4997C16.2427 27.491 19.5084 30.7566 23.4997 30.7566C27.491 30.7566 30.7566 27.491 30.7566 23.4997C30.7566 19.5084 27.491 16.2427 23.4997 16.2427ZM23.4997 18.6617C26.1847 18.6617 28.3376 20.8146 28.3376 23.4997C28.3376 26.1847 26.1847 28.3376 23.4997 28.3376C20.8146 28.3376 18.6617 26.1847 18.6617 23.4997C18.6617 20.8146 20.8146 18.6617 23.4997 18.6617Z"
    fill="currentColor" />
</svg>
