<svg width="47" height="47" viewBox="0 0 47 47" fill="none" xmlns="http://www.w3.org/2000/svg">
  <path fill-rule="evenodd" clip-rule="evenodd"
    d="M13.5967 10.9688L13.5887 10.9688L13.5807 10.9688H13.5967ZM13.5887 10.9688C15.4675 10.9722 16.6136 12.198 16.6455 13.8051C16.6455 15.3827 15.4643 16.6415 13.5488 16.6415H13.5169C11.6812 16.6415 10.5 15.4145 10.5 13.8051C10.5 12.198 11.7256 10.9722 13.5887 10.9688ZM16.6479 19.007H10.9752V36.0253H16.6479V19.007ZM25.0566 21.3651C25.8043 20.2068 27.1209 18.552 30.0792 18.552V18.5355C33.7527 18.5355 36.4996 20.968 36.4996 26.2136V36.0099H30.9244V26.8755C30.9244 24.5919 30.1117 23.0199 28.0962 23.0199C26.552 23.0199 25.6418 24.079 25.2354 25.1049C25.0891 25.469 25.0566 25.982 25.0566 26.4949V36.0264H19.4814C19.4814 36.0264 19.5464 20.5543 19.4814 18.9492H25.0566V21.3651Z"
    fill="currentColor" />
</svg>
