<svg width="47" height="47" viewBox="0 0 47 47" fill="none" xmlns="http://www.w3.org/2000/svg">
<path d="M37.93 18.8493C37.93 12.3409 33.6735 10.4342 33.6735 10.4342C31.5285 9.44686 27.8438 9.0315 24.0158 9H23.9214C20.0935 9.0315 16.4119 9.44686 14.265 10.4342C14.265 10.4342 10.0086 12.3422 10.0086 18.8493C10.0086 20.3389 9.98027 22.1209 10.0265 24.0109C10.1806 30.3754 11.1911 36.6485 17.0645 38.2055C19.7728 38.9242 22.098 39.0741 23.9691 38.9706C27.3645 38.7816 29.2702 37.7569 29.2702 37.7569L29.1579 35.2877C29.1579 35.2877 26.7312 36.0541 24.0063 35.9614C21.3057 35.8682 18.4564 35.6702 18.0194 32.3478C17.978 32.0391 17.9583 31.7277 17.9596 31.4163C17.9596 31.4163 20.6095 32.0656 23.9691 32.2204C26.023 32.3149 27.9484 32.1003 29.9053 31.8663C33.6569 31.4176 36.9239 29.1019 37.334 26.985C37.9839 23.6505 37.93 18.8489 37.93 18.8489V18.8493ZM32.91 27.2343H29.7943V19.5855C29.7943 17.9732 29.1175 17.1555 27.7629 17.1555C26.2659 17.1555 25.5159 18.1262 25.5159 20.0459V24.2323H22.4182V20.0459C22.4182 18.1257 21.6681 17.1555 20.1694 17.1555C18.8143 17.1555 18.1379 17.9745 18.1379 19.5855V27.2343H15.0223V19.3547C15.0223 17.7437 15.431 16.4643 16.2543 15.5175C17.1018 14.5711 18.2111 14.0851 19.59 14.0851C21.1844 14.0851 22.3926 14.6985 23.1907 15.927L23.9664 17.2307L24.7434 15.927C25.5415 14.6985 26.7497 14.0851 28.3441 14.0851C29.7216 14.0851 30.8323 14.5711 31.6798 15.5175C32.5017 16.4638 32.9105 17.7437 32.9105 19.3547V27.2343H32.91Z" fill="currentColor" />
</svg>
