<svg width="47" height="47" viewBox="0 0 47 47" fill="none" xmlns="http://www.w3.org/2000/svg">
<path d="M32.4367 35C38.8229 35 44 29.851 44 23.5C44 17.149 38.8225 12 32.4367 12C26.0509 12 20.8734 17.1486 20.8734 23.5C20.8734 29.8514 26.0503 35 32.4367 35ZM13.9707 34.3263C17.1639 34.3263 19.752 29.4781 19.752 23.4998C19.752 17.5216 17.1635 12.673 13.9703 12.673C10.7771 12.673 8.18861 17.5213 8.18861 23.4998H8.18906C8.18906 29.4798 10.7772 34.3263 13.9706 34.3263H13.9707ZM5.0336 33.1987C6.15636 33.1987 7.06662 28.856 7.06662 23.4998C7.06662 18.1436 6.15694 13.801 5.0336 13.801C3.91027 13.801 3 18.1447 3 23.5C3 28.8564 3.91065 33.1987 5.03347 33.1987H5.0336Z" fill="black"/>
</svg>
