<svg width="47" height="47" viewBox="0 0 47 47" fill="none" xmlns="http://www.w3.org/2000/svg">
<path d="M31.8469 33C37.4543 33 42 28.5226 42 23C42 17.4774 37.4539 13 31.8469 13C26.2398 13 21.6938 17.477 21.6938 23C21.6938 28.523 26.2393 33 31.8469 33ZM15.6328 32.4142C18.4366 32.4142 20.7091 28.1983 20.7091 22.9998C20.7091 17.8014 18.4363 13.5852 15.6325 13.5852C12.8287 13.5852 10.5559 17.8011 10.5559 22.9998H10.5563C10.5563 28.1998 12.8288 32.4142 15.6327 32.4142H15.6328ZM7.7856 31.4336C8.77144 31.4336 9.57069 27.6574 9.57069 22.9998C9.57069 18.3423 8.77195 14.566 7.7856 14.566C6.79926 14.566 6 18.3432 6 23C6 27.6577 6.79959 31.4336 7.78549 31.4336H7.7856Z" fill="black"/>
</svg>
