<svg width="47" height="47" viewBox="0 0 47 47" fill="none" xmlns="http://www.w3.org/2000/svg">
<path d="M14.4114 29.9141C12.5158 29.9141 10.9766 31.4475 10.9766 33.336C10.9766 35.2246 12.5158 36.758 14.4114 36.758C16.307 36.758 17.8462 35.2246 17.8462 33.336C17.8462 31.4475 16.307 29.9141 14.4114 29.9141Z" fill="black"/>
<path d="M10.9766 10.9766V15.9319C22.4638 15.9319 31.8124 25.2939 31.8124 36.8027H36.7864C36.8027 22.566 25.2182 10.9766 10.9766 10.9766Z" fill="black"/>
<path d="M10.9766 19.7578V24.7132C14.2008 24.7132 17.2306 25.9722 19.5151 28.2481C21.7995 30.5241 23.0471 33.5748 23.0471 36.803H28.0211C28.0211 27.3926 20.3738 19.7578 10.9766 19.7578Z" fill="black"/>
</svg>
