<svg width="47" height="47" viewBox="0 0 47 47" fill="none" xmlns="http://www.w3.org/2000/svg">
<path d="M15.3027 26.9576C15.3027 28.692 13.8857 30.1089 12.1513 30.1089C10.417 30.1089 9 28.692 9 26.9576C9 25.2232 10.417 23.8063 12.1513 23.8063H15.3027V26.9576ZM16.8911 26.9576C16.8911 25.2232 18.308 23.8063 20.0424 23.8063C21.7768 23.8063 23.1937 25.2232 23.1937 26.9576V34.8487C23.1937 36.583 21.7768 38 20.0424 38C18.308 38 16.8911 36.583 16.8911 34.8487V26.9576ZM20.0424 14.3027C18.308 14.3027 16.8911 12.8857 16.8911 11.1513C16.8911 9.41696 18.308 8 20.0424 8C21.7768 8 23.1937 9.41696 23.1937 11.1513V14.3027H20.0424ZM20.0424 15.8911C21.7768 15.8911 23.1937 17.308 23.1937 19.0424C23.1937 20.7768 21.7768 22.1937 20.0424 22.1937H12.1513C10.417 22.1937 9 20.7768 9 19.0424C9 17.308 10.417 15.8911 12.1513 15.8911H20.0424ZM32.6973 19.0424C32.6973 17.308 34.1143 15.8911 35.8487 15.8911C37.583 15.8911 39 17.308 39 19.0424C39 20.7768 37.583 22.1937 35.8487 22.1937H32.6973V19.0424ZM31.1089 19.0424C31.1089 20.7768 29.692 22.1937 27.9576 22.1937C26.2232 22.1937 24.8062 20.7768 24.8062 19.0424V11.1513C24.8062 9.41696 26.2232 8 27.9576 8C29.692 8 31.1089 9.41696 31.1089 11.1513V19.0424ZM27.9576 31.6973C29.692 31.6973 31.1089 33.1143 31.1089 34.8487C31.1089 36.583 29.692 38 27.9576 38C26.2232 38 24.8062 36.583 24.8062 34.8487V31.6973H27.9576ZM27.9576 30.1089C26.2232 30.1089 24.8062 28.692 24.8062 26.9576C24.8062 25.2232 26.2232 23.8063 27.9576 23.8063H35.8487C37.583 23.8063 39 25.2232 39 26.9576C39 28.692 37.583 30.1089 35.8487 30.1089H27.9576Z" fill="currentColor" />
</svg>
