<svg width="47" height="47" viewBox="0 0 47 47" fill="none" xmlns="http://www.w3.org/2000/svg">
<path d="M14.143 27.4853C14.143 29.4509 12.5371 31.0568 10.5715 31.0568C8.60589 31.0568 7 29.4509 7 27.4853C7 25.5196 8.60589 23.9138 10.5715 23.9138H14.143V27.4853ZM15.9432 27.4853C15.9432 25.5196 17.5491 23.9138 19.5147 23.9138C21.4804 23.9138 23.0863 25.5196 23.0863 27.4853V36.4285C23.0863 38.3941 21.4804 40 19.5147 40C17.5491 40 15.9432 38.3941 15.9432 36.4285V27.4853ZM19.5147 13.143C17.5491 13.143 15.9432 11.5371 15.9432 9.57152C15.9432 7.60589 17.5491 6 19.5147 6C21.4804 6 23.0863 7.60589 23.0863 9.57152V13.143H19.5147ZM19.5147 14.9432C21.4804 14.9432 23.0863 16.5491 23.0863 18.5147C23.0863 20.4804 21.4804 22.0863 19.5147 22.0863H10.5715C8.60589 22.0863 7 20.4804 7 18.5147C7 16.5491 8.60589 14.9432 10.5715 14.9432H19.5147ZM33.857 18.5147C33.857 16.5491 35.4629 14.9432 37.4285 14.9432C39.3941 14.9432 41 16.5491 41 18.5147C41 20.4804 39.3941 22.0863 37.4285 22.0863H33.857V18.5147ZM32.0568 18.5147C32.0568 20.4804 30.4509 22.0863 28.4853 22.0863C26.5196 22.0863 24.9137 20.4804 24.9137 18.5147V9.57152C24.9137 7.60589 26.5196 6 28.4853 6C30.4509 6 32.0568 7.60589 32.0568 9.57152V18.5147ZM28.4853 32.857C30.4509 32.857 32.0568 34.4629 32.0568 36.4285C32.0568 38.3941 30.4509 40 28.4853 40C26.5196 40 24.9137 38.3941 24.9137 36.4285V32.857H28.4853ZM28.4853 31.0568C26.5196 31.0568 24.9137 29.4509 24.9137 27.4853C24.9137 25.5196 26.5196 23.9138 28.4853 23.9138H37.4285C39.3941 23.9138 41 25.5196 41 27.4853C41 29.4509 39.3941 31.0568 37.4285 31.0568H28.4853Z" fill="black"/>
</svg>
