<svg width="47" height="47" viewBox="0 0 47 47" fill="none" xmlns="http://www.w3.org/2000/svg">
<path d="M36.8623 23.5153L36.4907 27.4915L36.8623 31.6697C36.8815 31.8226 37.0033 31.9388 37.1442 31.9388C37.2852 31.9388 37.4133 31.8226 37.4133 31.6697L37.7722 27.4915L37.4133 23.5153C37.4133 23.3807 37.2916 23.2584 37.1442 23.2584C37.0033 23.2584 36.8815 23.3807 36.8623 23.5153ZM35.4912 20.7258C35.6706 20.7258 35.7923 20.8604 35.8115 21.0317L36.1319 27.4915L35.8115 31.6697C35.7923 31.841 35.6706 31.9755 35.4912 31.9755C35.331 31.9755 35.19 31.841 35.19 31.6697L34.8184 27.4915L35.19 21.0317C35.19 20.8604 35.331 20.7258 35.4912 20.7258ZM33.8573 19.2515C34.0559 19.2515 34.1969 19.3861 34.2161 19.5757L34.498 27.5282L34.2161 31.6758C34.1969 31.8654 34.0559 32 33.8573 32C33.6779 32 33.5177 31.8654 33.5177 31.6758L33.1782 27.5282L33.5177 19.5757C33.5177 19.3861 33.6779 19.2515 33.8573 19.2515ZM43.5387 25.1608C43.6284 25.1608 43.6796 25.2281 43.6989 25.3138L44 27.4915L43.6989 29.6326C43.6796 29.7182 43.6284 29.7855 43.5387 29.7855C43.449 29.7855 43.3977 29.7182 43.3785 29.6326L43.0197 27.4915L43.3785 25.3138C43.3977 25.2281 43.449 25.1608 43.5387 25.1608ZM42.0266 23.8212C42.1163 23.8212 42.1867 23.8884 42.1867 23.9741L42.5968 27.4915L42.1867 30.9234C42.1867 31.0273 42.1163 31.0946 42.0266 31.0946C41.9369 31.0946 41.8664 31.0273 41.8472 30.9417L41.3858 27.4915L41.8472 23.9741C41.8664 23.8884 41.9369 23.8212 42.0266 23.8212ZM40.4055 23.1238C40.5145 23.1238 40.6042 23.2094 40.617 23.3257L40.9886 27.4915L40.617 31.5167C40.5978 31.6207 40.508 31.7064 40.4055 31.7064C40.2966 31.7064 40.2069 31.6207 40.2069 31.5167L39.7648 27.4915L40.2069 23.3257C40.2069 23.2094 40.2966 23.1238 40.4055 23.1238ZM38.7845 22.9892C38.9062 22.9892 39.0152 23.0748 39.0152 23.2094L39.3868 27.4915L39.0152 31.6391C39.0152 31.7737 38.9062 31.8593 38.7845 31.8593C38.6628 31.8593 38.5538 31.7737 38.5346 31.6391L38.1246 27.4915L38.5346 23.2094C38.5538 23.0748 38.6628 22.9892 38.7845 22.9892ZM23.3174 16.2051C23.3879 16.1562 23.4968 16.1195 23.5865 16.1195C23.7275 16.1195 23.8556 16.1684 23.9453 16.2357C24.067 16.3397 24.1439 16.4926 24.1567 16.6456V16.6945L24.3682 27.5038L24.2593 29.4919L24.1503 31.4311C24.1311 31.7186 23.8812 31.9572 23.5801 31.9572C23.279 31.9572 23.0291 31.7186 23.0291 31.4311L22.7792 27.5038L23.0291 16.6456C23.0547 16.462 23.1572 16.2908 23.3174 16.2051ZM25.0281 17.1411C25.1178 17.0921 25.2075 17.0554 25.3101 17.0554C25.4126 17.0554 25.5087 17.0921 25.592 17.1411C25.7329 17.2267 25.8226 17.3796 25.8226 17.5509L25.8419 17.6549L26.0213 27.4915C26.0213 27.4915 26.0213 27.5099 25.8226 31.5045V31.5229C25.8226 31.6268 25.7842 31.7247 25.7137 31.8104C25.6048 31.9266 25.4638 32 25.3036 32C25.1627 32 25.0345 31.9327 24.9448 31.8471C24.8359 31.7614 24.7847 31.6452 24.7847 31.5045L24.7654 31.0946L24.5668 27.5099L24.7783 17.5509C24.7975 17.3796 24.8872 17.2267 25.0281 17.1411ZM32.1658 18.5175C32.3644 18.5175 32.5374 18.6887 32.5374 18.8906L32.8194 27.4915L32.5374 31.6024C32.5182 31.8042 32.358 31.9572 32.1658 31.9572C31.9544 31.9572 31.7942 31.8042 31.775 31.6024L31.4546 27.4915L31.775 18.8906C31.7878 18.6887 31.948 18.5175 32.1658 18.5175ZM8.0297 22.3591C8.72169 22.3591 9.38163 22.4937 9.99032 22.7323C10.4004 18.4012 14.2063 15 18.8515 15C19.992 15 21.0941 15.2019 22.0744 15.575C22.4652 15.7096 22.5742 15.8442 22.5742 16.1378V31.4127C22.5742 31.7186 22.3243 31.9388 22.0231 31.9755H8.03611C5.26177 31.9755 3.00001 29.8345 3.00001 27.1857C2.99361 24.5185 5.25536 22.3591 8.0297 22.3591ZM27.04 18.6704C27.3091 18.6704 27.5206 18.8723 27.5398 19.1475L27.7512 27.5099L27.5398 31.5229C27.5206 31.7798 27.3091 31.9816 27.04 31.9816C26.7709 31.9816 26.5595 31.7798 26.5595 31.5229L26.3096 27.5099L26.5595 19.1475C26.5787 18.8723 26.7709 18.6704 27.04 18.6704ZM30.4743 18.1932C30.6857 18.1932 30.8844 18.3829 30.8844 18.6031L31.1342 27.4915L30.8844 31.584C30.8651 31.8042 30.6857 31.9755 30.4743 31.9755C30.2436 31.9755 30.0642 31.8042 30.045 31.584L29.7631 27.4915L30.045 18.6031C30.0642 18.3829 30.2436 18.1932 30.4743 18.1932ZM28.7636 18.4012C29.0134 18.4012 29.2057 18.5909 29.2057 18.8233L29.4555 27.4915L29.2057 31.5534C29.1864 31.792 29.007 31.9755 28.7636 31.9755C28.5201 31.9755 28.3215 31.7859 28.3215 31.5534L28.0524 27.4915L28.3215 18.8233C28.3215 18.5847 28.5137 18.4012 28.7636 18.4012Z" fill="currentColor" />
</svg>
