<svg width="47" height="47" viewBox="0 0 47 47" fill="none" xmlns="http://www.w3.org/2000/svg">
<path d="M24 6C14.6157 6 7 13.6157 7 23C7 32.3843 14.6157 40 24 40C33.3843 40 41 32.3843 41 23C41 13.6157 33.3843 6 24 6ZM30.9028 31.0133C30.6149 31.0133 30.4367 30.9242 30.1694 30.7665C25.8919 28.1891 20.9153 28.0794 16.0004 29.0871C15.7331 29.1556 15.3835 29.2653 15.1847 29.2653C14.5198 29.2653 14.1016 28.7375 14.1016 28.1823C14.1016 27.4762 14.5198 27.1403 15.0339 27.0306C20.648 25.7899 26.3855 25.8996 31.2798 28.8266C31.698 29.094 31.9448 29.3339 31.9448 29.9577C31.9448 30.5815 31.4581 31.0133 30.9028 31.0133ZM32.7468 26.5165C32.3903 26.5165 32.1504 26.3589 31.9036 26.2286C27.6194 23.6923 21.2306 22.671 15.548 24.2133C15.219 24.3024 15.0407 24.3915 14.7323 24.3915C13.9988 24.3915 13.4024 23.7952 13.4024 23.0617C13.4024 22.3282 13.7589 21.8415 14.4649 21.6427C16.3706 21.1081 18.3173 20.7105 21.169 20.7105C25.6177 20.7105 29.9157 21.8141 33.302 23.8294C33.8573 24.1585 34.0766 24.5835 34.0766 25.1798C34.0698 25.9202 33.494 26.5165 32.7468 26.5165ZM34.8718 21.2931C34.5153 21.2931 34.296 21.204 33.9875 21.0258C29.1069 18.1125 20.3806 17.4133 14.7323 18.9899C14.4855 19.0585 14.177 19.1681 13.848 19.1681C12.9431 19.1681 12.2508 18.4621 12.2508 17.5504C12.2508 16.6181 12.8266 16.0903 13.4435 15.9121C15.8565 15.206 18.5573 14.8702 21.498 14.8702C26.502 14.8702 31.746 15.9121 35.5778 18.1468C36.1125 18.4552 36.4621 18.8802 36.4621 19.696C36.4621 20.6282 35.7081 21.2931 34.8718 21.2931Z" fill="black"/>
</svg>
