<svg width="47" height="47" viewBox="0 0 47 47" fill="none" xmlns="http://www.w3.org/2000/svg">
<path d="M24 6C14.6111 6 7 13.6111 7 23C7 32.3889 14.6111 40 24 40C33.3889 40 41 32.3889 41 23C41 13.6111 33.3889 6 24 6ZM31.8798 17.5614C31.624 20.2495 30.517 26.7728 29.9536 29.7835C29.7153 31.0575 29.246 31.4846 28.7918 31.5264C27.8047 31.6173 27.0549 30.874 26.0987 30.2472C24.6025 29.2664 23.7573 28.6559 22.3049 27.6988C20.6265 26.5928 21.7145 25.9851 22.6711 24.9911C22.9214 24.7311 27.2711 20.7747 27.3553 20.4158C27.3658 20.3709 27.3759 20.2033 27.2762 20.1153C27.1765 20.0273 27.0301 20.0571 26.9242 20.081C26.7742 20.1151 24.3839 21.695 19.7535 24.8206C19.0751 25.2864 18.4606 25.5134 17.91 25.5015C17.303 25.4884 16.1354 25.1584 15.2673 24.8762C14.2027 24.5301 13.3566 24.3472 13.4303 23.7594C13.4686 23.4533 13.8902 23.1402 14.695 22.8203C19.6508 20.6612 22.9555 19.2376 24.609 18.5498C29.33 16.5861 30.311 16.245 30.9505 16.2336C31.0911 16.2313 31.4056 16.2661 31.6092 16.4314C31.7447 16.5491 31.831 16.7134 31.8512 16.8917C31.8857 17.1132 31.8953 17.3378 31.8798 17.5614Z" fill="black"/>
</svg>
