<svg width="47" height="47" viewBox="0 0 47 47" fill="none" xmlns="http://www.w3.org/2000/svg">
  <path
    d="M23.9159 28.439C22.2395 28.5323 20.4973 27.7873 20.4117 26.1923C20.3483 25.0093 21.2619 23.689 24.0187 23.5318C24.3345 23.5137 24.6445 23.5053 24.9489 23.5053C25.9504 23.5053 26.8868 23.6013 27.7388 23.7856C27.4213 27.7122 25.5581 28.3497 23.9165 28.439H23.9159ZM30.837 21.9978C30.704 21.9345 30.5692 21.874 30.4328 21.8158C30.1947 17.475 27.7987 14.9897 23.7749 14.9643H23.7201C21.3133 14.9643 19.3119 15.9811 18.0797 17.8316L20.2923 19.3345C21.2128 17.9526 22.6569 17.6575 23.7206 17.6575C23.7326 17.6575 23.7452 17.6575 23.7572 17.6575C25.0819 17.6654 26.0817 18.047 26.7287 18.7908C27.1998 19.3323 27.5144 20.08 27.6703 21.0245C26.4957 20.8267 25.2252 20.7662 23.8674 20.8431C20.0422 21.0613 17.5829 23.2696 17.748 26.3381C17.8313 27.8947 18.6153 29.2337 19.9537 30.1087C21.0855 30.848 22.5432 31.2097 24.0581 31.1283C26.0589 31.0198 27.628 30.2641 28.7232 28.8827C29.5546 27.8337 30.0805 26.4738 30.3129 24.7606C31.2664 25.3298 31.9728 26.0798 32.3633 26.9808C33.0268 28.5125 33.0657 31.0294 30.9906 33.0812C29.1726 34.8786 26.9879 35.6563 23.6858 35.68C20.0228 35.6535 17.2523 34.4903 15.4514 32.2237C13.7646 30.1013 12.8933 27.0356 12.8608 23.1124C12.8933 19.1887 13.7652 16.123 15.4514 14.0011C17.2529 11.7346 20.0228 10.5714 23.6858 10.5448C27.3751 10.572 30.1941 11.7403 32.0641 14.0181C32.9811 15.135 33.6726 16.5395 34.1283 18.177L36.7212 17.4919C36.1691 15.4763 35.2994 13.7394 34.1169 12.2987C31.7204 9.37878 28.2139 7.88265 23.6961 7.85156H23.6778C19.1692 7.88265 15.7021 9.38443 13.3729 12.3151C11.3002 14.9236 10.2313 18.5523 10.1953 23.1017V23.1124V23.1232C10.2313 27.672 11.3002 31.3013 13.3729 33.9098C15.7021 36.841 19.1692 38.3428 23.6778 38.3733H23.6961C27.7045 38.3456 30.5298 37.3067 32.8578 35.0052C35.903 31.9937 35.8116 28.2186 34.8078 25.9012C34.0878 24.2395 32.7145 22.8892 30.8376 21.9984L30.837 21.9978Z"
    fill="currentColor" />
</svg>
