<svg width="47" height="47" viewBox="0 0 47 47" fill="none" xmlns="http://www.w3.org/2000/svg">
<path d="M41 19.5832C37.6578 19.591 34.3976 18.5718 31.6799 16.6694V29.9371C31.679 32.3944 30.9109 34.7929 29.4785 36.8119C28.046 38.8308 26.0173 40.374 23.6638 41.235C21.3102 42.096 18.744 42.2339 16.3081 41.6301C13.8723 41.0264 11.683 39.7098 10.033 37.8564C8.383 36.0031 7.35091 33.7013 7.07476 31.2589C6.7986 28.8164 7.29154 26.3497 8.48765 24.1886C9.68377 22.0276 11.5261 20.2751 13.7682 19.1655C16.0103 18.056 18.5453 17.6423 21.0344 17.9797V24.6529C19.8954 24.3025 18.6723 24.3131 17.5398 24.683C16.4073 25.053 15.4233 25.7634 14.7284 26.7129C14.0334 27.6623 13.663 28.8023 13.67 29.9699C13.677 31.1375 14.0612 32.2731 14.7675 33.2144C15.4739 34.1558 16.4664 34.8549 17.6032 35.2118C18.7401 35.5686 19.9632 35.5651 21.0979 35.2016C22.2326 34.8382 23.2209 34.1334 23.9215 33.188C24.6222 32.2425 24.9995 31.1047 24.9994 29.9371V4H31.6799C31.6753 4.55169 31.7226 5.10263 31.8211 5.64585C32.0533 6.8585 32.536 8.0121 33.2396 9.03608C33.9433 10.0601 34.8532 10.9329 35.9137 11.6012C37.4224 12.5767 39.1913 13.0967 41 13.0963V19.5832Z" fill="black"/>
</svg>
