<svg width="47" height="47" viewBox="0 0 47 47" fill="none" xmlns="http://www.w3.org/2000/svg">
<path d="M37 20.3025C34.3459 20.3087 31.7569 19.504 29.5988 18.0021V28.4767C29.598 30.4167 28.9881 32.3102 27.8505 33.9041C26.713 35.498 25.102 36.7163 23.233 37.396C21.364 38.0758 19.3261 38.1846 17.3918 37.708C15.4574 37.2313 13.7189 36.1919 12.4086 34.7288C11.0983 33.2656 10.2787 31.4484 10.0594 29.5201C9.84006 27.5919 10.2315 25.6445 11.1814 23.9384C12.1312 22.2323 13.5942 20.8487 15.3747 19.9728C17.1552 19.0968 19.1684 18.7702 21.145 19.0366V24.3049C20.2405 24.0283 19.2692 24.0366 18.3699 24.3287C17.4705 24.6208 16.6891 25.1816 16.1372 25.9312C15.5853 26.6808 15.2912 27.5807 15.2968 28.5025C15.3023 29.4243 15.6074 30.3208 16.1683 31.064C16.7293 31.8072 17.5174 32.3591 18.4202 32.6409C19.323 32.9226 20.2943 32.9198 21.1954 32.6329C22.0965 32.3459 22.8813 31.7895 23.4377 31.0431C23.9941 30.2967 24.2937 29.3985 24.2937 28.4767V8H29.5988C29.5951 8.43554 29.6326 8.87049 29.7109 9.29935C29.8952 10.2567 30.2785 11.1674 30.8374 11.9759C31.3962 12.7843 32.1187 13.4733 32.9609 14.0009C34.159 14.7711 35.5637 15.1816 37 15.1813V20.3025Z" fill="currentColor" />
</svg>
