<svg width="47" height="47" viewBox="0 0 47 47" fill="none" xmlns="http://www.w3.org/2000/svg">
<path d="M30.375 23C30.375 24.4742 30.2953 25.8953 30.1559 27.25H17.8508C17.7047 25.8953 17.6316 24.4742 17.6316 23C17.6316 21.5258 17.7113 20.1047 17.8508 18.75H30.1559C30.302 20.1047 30.375 21.5258 30.375 23ZM32.2875 18.75H40.4621C40.8141 20.1113 41 21.5324 41 23C41 24.4676 40.8141 25.8887 40.4621 27.25H32.2875C32.427 25.882 32.5 24.4609 32.5 23C32.5 21.5391 32.427 20.118 32.2875 18.75ZM39.7648 16.625H32.0152C31.3512 12.3816 30.0363 8.82891 28.343 6.55781C33.5426 7.93242 37.7727 11.7043 39.7582 16.625H39.7648ZM29.8637 16.625H18.1363C18.5414 14.2078 19.1656 12.0695 19.9293 10.3363C20.6266 8.76914 21.4035 7.63359 22.1539 6.91641C22.8977 6.2125 23.5152 6 24 6C24.4848 6 25.1023 6.2125 25.8461 6.91641C26.5965 7.63359 27.3734 8.76914 28.0707 10.3363C28.841 12.0629 29.4586 14.2012 29.8637 16.625ZM15.9848 16.625H8.23516C10.2273 11.7043 14.4508 7.93242 19.657 6.55781C17.9637 8.82891 16.6488 12.3816 15.9848 16.625ZM7.53789 18.75H15.7125C15.573 20.118 15.5 21.5391 15.5 23C15.5 24.4609 15.573 25.882 15.7125 27.25H7.53789C7.18594 25.8887 7 24.4676 7 23C7 21.5324 7.18594 20.1113 7.53789 18.75ZM19.9293 35.657C19.159 33.9305 18.5414 31.7922 18.1363 29.375H29.8637C29.4586 31.7922 28.8344 33.9305 28.0707 35.657C27.3734 37.2242 26.5965 38.3598 25.8461 39.077C25.1023 39.7875 24.4848 40 24 40C23.5152 40 22.8977 39.7875 22.1539 39.0836C21.4035 38.3664 20.6266 37.2309 19.9293 35.6637V35.657ZM15.9848 29.375C16.6488 33.6184 17.9637 37.1711 19.657 39.4422C14.4508 38.0676 10.2273 34.2957 8.23516 29.375H15.9848ZM39.7648 29.375C37.7727 34.2957 33.5492 38.0676 28.3496 39.4422C30.043 37.1711 31.3512 33.6184 32.0219 29.375H39.7715H39.7648Z" fill="black"/>
</svg>
