<svg width="47" height="47" viewBox="0 0 47 47" fill="none" xmlns="http://www.w3.org/2000/svg">
<path d="M29.625 23C29.625 24.3008 29.5547 25.5547 29.4316 26.75H18.5742C18.4453 25.5547 18.3809 24.3008 18.3809 23C18.3809 21.6992 18.4512 20.4453 18.5742 19.25H29.4316C29.5605 20.4453 29.625 21.6992 29.625 23ZM31.3125 19.25H38.5254C38.8359 20.4512 39 21.7051 39 23C39 24.2949 38.8359 25.5488 38.5254 26.75H31.3125C31.4355 25.543 31.5 24.2891 31.5 23C31.5 21.7109 31.4355 20.457 31.3125 19.25ZM37.9102 17.375H31.0723C30.4863 13.6309 29.3262 10.4961 27.832 8.49219C32.4199 9.70508 36.1523 13.0332 37.9043 17.375H37.9102ZM29.1738 17.375H18.8262C19.1836 15.2422 19.7344 13.3555 20.4082 11.8262C21.0234 10.4434 21.709 9.44141 22.3711 8.80859C23.0273 8.1875 23.5723 8 24 8C24.4277 8 24.9727 8.1875 25.6289 8.80859C26.291 9.44141 26.9766 10.4434 27.5918 11.8262C28.2715 13.3496 28.8164 15.2363 29.1738 17.375ZM16.9277 17.375H10.0898C11.8477 13.0332 15.5742 9.70508 20.168 8.49219C18.6738 10.4961 17.5137 13.6309 16.9277 17.375ZM9.47461 19.25H16.6875C16.5645 20.457 16.5 21.7109 16.5 23C16.5 24.2891 16.5645 25.543 16.6875 26.75H9.47461C9.16406 25.5488 9 24.2949 9 23C9 21.7051 9.16406 20.4512 9.47461 19.25ZM20.4082 34.168C19.7285 32.6445 19.1836 30.7578 18.8262 28.625H29.1738C28.8164 30.7578 28.2656 32.6445 27.5918 34.168C26.9766 35.5508 26.291 36.5527 25.6289 37.1855C24.9727 37.8125 24.4277 38 24 38C23.5723 38 23.0273 37.8125 22.3711 37.1914C21.709 36.5586 21.0234 35.5566 20.4082 34.1738V34.168ZM16.9277 28.625C17.5137 32.3691 18.6738 35.5039 20.168 37.5078C15.5742 36.2949 11.8477 32.9668 10.0898 28.625H16.9277ZM37.9102 28.625C36.1523 32.9668 32.4258 36.2949 27.8379 37.5078C29.332 35.5039 30.4863 32.3691 31.0781 28.625H37.916H37.9102Z" fill="black"/>
</svg>
