<svg width="47" height="47" viewBox="0 0 47 47" fill="none" xmlns="http://www.w3.org/2000/svg">
<path d="M35.9076 10.9406C32.7277 7.75312 28.4929 6 23.9924 6C14.7031 6 7.1442 13.5589 7.1442 22.8482C7.1442 25.8156 7.9183 28.7147 9.39063 31.2723L7 40L15.9326 37.6549C18.3915 38.9982 21.1616 39.704 23.9848 39.704H23.9924C33.2741 39.704 41 32.1451 41 22.8558C41 18.3554 39.0875 14.1281 35.9076 10.9406ZM23.9924 36.8656C21.4728 36.8656 19.0062 36.1902 16.8585 34.9152L16.35 34.6116L11.0527 36.0004L12.4643 30.8321L12.1304 30.3009C10.7263 28.0696 9.99018 25.4969 9.99018 22.8482C9.99018 15.1299 16.2741 8.84598 24 8.84598C27.7415 8.84598 31.2554 10.3031 33.8964 12.9518C36.5375 15.6004 38.1616 19.1143 38.154 22.8558C38.154 30.5817 31.7107 36.8656 23.9924 36.8656ZM31.6728 26.3772C31.2554 26.1647 29.1835 25.1478 28.7964 25.0112C28.4094 24.867 28.1286 24.7987 27.8478 25.2237C27.567 25.6487 26.7625 26.5897 26.5121 26.8781C26.2692 27.1589 26.0188 27.1969 25.6013 26.9844C23.1272 25.7473 21.5031 24.7759 19.8714 21.9754C19.4388 21.2317 20.304 21.2848 21.1085 19.6759C21.2451 19.3951 21.1768 19.1522 21.0705 18.9397C20.9643 18.7272 20.1219 16.6554 19.7728 15.8129C19.4313 14.9933 19.0821 15.1071 18.8241 15.092C18.5813 15.0768 18.3004 15.0768 18.0196 15.0768C17.7388 15.0768 17.2835 15.183 16.8964 15.6004C16.5094 16.0254 15.4241 17.0424 15.4241 19.1143C15.4241 21.1862 16.9344 23.1897 17.1393 23.4705C17.3518 23.7513 20.1067 28.0013 24.3339 29.8304C27.0054 30.9839 28.0527 31.0826 29.3884 30.8853C30.2004 30.7638 31.8777 29.8683 32.2268 28.8817C32.5759 27.8951 32.5759 27.0527 32.4696 26.8781C32.371 26.6884 32.0902 26.5821 31.6728 26.3772Z" fill="black"/>
</svg>
