<svg width="47" height="47" viewBox="0 0 47 47" fill="none" xmlns="http://www.w3.org/2000/svg">
<path d="M34.3569 12.5047C31.4576 9.59844 27.5964 8 23.4931 8C15.0234 8 8.13147 14.892 8.13147 23.3616C8.13147 26.0672 8.83728 28.7105 10.1797 31.0424L8 39L16.1444 36.8618C18.3864 38.0866 20.9121 38.7301 23.4862 38.7301H23.4931C31.9558 38.7301 39 31.8382 39 23.3685C39 19.2652 37.2562 15.4109 34.3569 12.5047ZM23.4931 36.1422C21.1958 36.1422 18.9469 35.5263 16.9886 34.3638L16.525 34.0871L11.6951 35.3533L12.9821 30.6411L12.6777 30.1567C11.3975 28.1223 10.7263 25.7766 10.7263 23.3616C10.7263 16.3243 16.4558 10.5949 23.5 10.5949C26.9114 10.5949 30.1152 11.9234 32.5232 14.3384C34.9312 16.7533 36.4121 19.9571 36.4051 23.3685C36.4051 30.4127 30.5304 36.1422 23.4931 36.1422ZM30.4958 26.5792C30.1152 26.3855 28.2261 25.4583 27.8732 25.3337C27.5203 25.2022 27.2643 25.14 27.0083 25.5275C26.7522 25.915 26.0187 26.773 25.7904 27.0359C25.569 27.292 25.3406 27.3266 24.96 27.1328C22.7042 26.0049 21.2234 25.1192 19.7357 22.5658C19.3413 21.8877 20.1301 21.9362 20.8636 20.4692C20.9882 20.2132 20.9259 19.9917 20.829 19.798C20.7321 19.6042 19.9641 17.7152 19.6458 16.9471C19.3344 16.1998 19.0161 16.3036 18.7808 16.2897C18.5594 16.2759 18.3033 16.2759 18.0473 16.2759C17.7913 16.2759 17.3761 16.3728 17.0232 16.7533C16.6703 17.1408 15.6808 18.0681 15.6808 19.9571C15.6808 21.8462 17.0578 23.673 17.2446 23.929C17.4384 24.185 19.9502 28.06 23.8045 29.7277C26.2402 30.7795 27.1951 30.8694 28.4129 30.6895C29.1533 30.5788 30.6826 29.7623 31.0009 28.8627C31.3192 27.9632 31.3192 27.1951 31.2223 27.0359C31.1324 26.8629 30.8763 26.7661 30.4958 26.5792Z" fill="currentColor" />
</svg>
