<svg width="47" height="47" viewBox="0 0 47 47" fill="none" xmlns="http://www.w3.org/2000/svg">
<path d="M15.2794 28.6298H10.8654C10.5994 28.6298 10.4037 28.5124 10.2863 28.3324C10.1689 28.1446 10.1611 27.902 10.2863 27.6594L14.9741 19.4342C14.9741 19.4342 14.9741 19.4185 14.9741 19.4107L11.9924 14.2768C11.8672 14.0342 11.8515 13.7916 11.9689 13.6037C12.0785 13.4237 12.3054 13.3298 12.5715 13.3298H16.9854C17.6585 13.3298 17.995 13.7681 18.2141 14.1516C18.2141 14.1516 21.235 19.3794 21.2507 19.4107C21.0707 19.7237 16.4846 27.7846 16.4846 27.7846C16.2576 28.1916 15.9367 28.6298 15.2794 28.6298ZM36.3394 8.822L26.5646 26.102C26.5646 26.102 26.5646 26.1255 26.5646 26.1333L32.7863 37.5046C32.9115 37.7472 32.9115 37.9976 32.7941 38.1855C32.6768 38.3655 32.4733 38.4672 32.2072 38.4672H27.8011C27.1281 38.4672 26.7837 38.0211 26.5724 37.622C26.5724 37.622 20.3115 26.149 20.2959 26.1176C20.6089 25.562 30.1176 8.69678 30.1176 8.69678C30.3524 8.27417 30.642 7.85156 31.2994 7.85156H35.7602C36.0263 7.85156 36.2376 7.9533 36.3472 8.1333C36.4646 8.32113 36.4567 8.56374 36.3394 8.81417V8.822Z" fill="currentColor" />
</svg>
