<svg width="47" height="47" viewBox="0 0 47 47" fill="none" xmlns="http://www.w3.org/2000/svg">
  <path
    d="M23.5 11C18.5042 11 12.03 12.2398 12.03 12.2398V12.2634C9.74077 12.6176 8 14.554 8 16.9155V24V31.0845C8 33.4105 9.71692 35.3824 12.03 35.7484C12.03 35.7484 18.5042 37 23.5 37C28.4958 37 34.97 35.7602 34.97 35.7602C37.2831 35.3942 39 33.4223 39 31.0963V24.0118V16.9273C39 14.6013 37.295 12.6294 34.97 12.2634C34.97 12.2634 28.4958 11.0236 23.5 11.0236V11ZM19.9231 18.5568L29.4615 23.9882L19.9231 29.4196V18.5568Z"
    fill="black" />
</svg>
